<svg width="36" height="24" viewBox="0 0 36 24" fill="none" xmlns="http://www.w3.org/2000/svg">
<path d="M28.8778 11.79C29.5754 11.1666 31.0571 9.78382 31.4035 9.23977C31.8364 8.5597 32.4859 7.5153 32.534 5.79084C32.5821 4.06637 31.8364 2.29333 31.7402 2.07473M15.2896 4.01779L28.0566 17.6939M25.4434 8.12811L31.5656 14.4804M4.98643 6.18505L14.1849 15.9315C14.8176 16.5553 16.4863 17.8007 18.0298 18.1433C20.0009 18.5807 22.5317 18.2405 22.5317 18.2405L12.2138 6.91421M2 8.91839L12.8673 20.4896C13.5723 21.1311 15.4103 22.497 17.1218 22.8283C19.2612 23.2424 21.3277 22.8526 22.6162 22.2436C23.9047 21.6346 24.2937 21.2692 25.0231 20.6358C25.6066 20.1291 30.2906 15.7475 32.5597 13.62C33.0297 13.2221 34.1059 12.0463 34.6505 10.5262C35.3312 8.62607 34.9179 6.3849 34.2615 5.09379C33.7363 4.0609 32.3084 2.60089 31.6601 2L25.2905 7.99269L21.3277 3.77832C19.1154 1.95128 16.7328 2.9257 16.7328 2.9257C16.4654 3.02314 15.7798 3.35932 15.1769 3.92448C14.574 4.48965 12.8997 6.07633 12.1379 6.79903C11.6355 6.17377 10.2805 4.90865 8.88018 4.85018C7.12975 4.7771 6.47333 4.94763 4.99033 6.09257C3.80392 7.00853 2.50244 8.3581 2 8.91839Z" stroke="#0A0B1E" stroke-width="2"/>
</svg>
