<svg width="27" height="27" viewBox="0 0 27 27" fill="none" xmlns="http://www.w3.org/2000/svg">
<path d="M27 13.5C27 20.9558 20.9558 27 13.5 27C6.04416 27 0 20.9558 0 13.5C0 6.04416 6.04416 0 13.5 0C20.9558 0 27 6.04416 27 13.5Z" fill="black"/>
<path d="M18.0317 13.6619C18.3699 13.3651 19.0883 12.7066 19.2562 12.4475C19.4661 12.1237 19.781 11.6263 19.8043 10.8052C19.8277 9.98399 19.4661 9.13968 19.4195 9.03559M11.4434 9.96085L17.6335 16.4733M16.3665 11.9181L19.3348 14.9431M6.44796 10.9929L10.9078 15.634C11.2146 15.9311 12.0237 16.5241 12.772 16.6873C13.7277 16.8956 14.9548 16.7336 14.9548 16.7336L9.95215 11.3401M5 12.2945L10.269 17.8046C10.6108 18.1101 11.5019 18.7605 12.3318 18.9182C13.3691 19.1154 14.371 18.9298 14.9957 18.6398C15.6205 18.3498 15.8091 18.1758 16.1627 17.8742C16.4456 17.6329 18.7166 15.5464 19.8168 14.5333C20.0447 14.3439 20.5665 13.7839 20.8305 13.0601C21.1606 12.1553 20.9602 11.088 20.6419 10.4732C20.3873 9.98138 19.695 9.28614 19.3807 9L16.2924 11.8537L14.371 9.84682C13.2984 8.9768 12.1432 9.44081 12.1432 9.44081C12.0135 9.48721 11.6811 9.64729 11.3888 9.91642C11.0965 10.1855 10.2847 10.9411 9.91536 11.2853C9.67175 10.9875 9.0148 10.3851 8.33584 10.3572C7.48715 10.3224 7.16889 10.4036 6.44985 10.9488C5.87463 11.385 5.24361 12.0277 5 12.2945Z" stroke="white" stroke-width="0.5"/>
</svg>
