<svg width="18" height="18" viewBox="0 0 18 18" fill="none" xmlns="http://www.w3.org/2000/svg">
<path fill-rule="evenodd" clip-rule="evenodd" d="M9 0C4.032 0 0 4.032 0 9C0 13.968 4.032 18 9 18C13.968 18 18 13.968 18 9C18 4.032 13.968 0 9 0ZM13.41 12.141L12.15 13.401C11.97 13.581 11.691 13.581 11.511 13.401L8.442 10.332C7.344 10.719 6.066 10.485 5.184 9.603C4.185 8.604 4.014 7.092 4.653 5.913L6.768 8.028L8.037 6.759L5.922 4.653C7.11 4.014 8.613 4.185 9.612 5.184C10.494 6.066 10.728 7.344 10.341 8.442L13.41 11.511C13.581 11.682 13.581 11.97 13.41 12.141Z" fill="#0A0B1E"/>
</svg>
