<svg width="493" height="284" viewBox="0 0 493 284" fill="none" xmlns="http://www.w3.org/2000/svg">
<path d="M37.5 112C-31.7 110 16.6667 -20.8333 37.5 -66.5L522.763 73C533.096 139.333 554.063 272 555.263 272C556.763 272 557.5 293.203 449.5 276.203C341.5 259.203 370.237 238.203 340.237 197.203C310.237 156.203 124 114.5 37.5 112Z" fill="#C7C7CB" stroke="#0A0B1E"/>
<path d="M84.5 82C-37.9 29.2 -4.83342 2.5 50.4999 -26.5H37.4999L643.5 -86L586 205C552 224.167 477.1 290.2 439.5 205C392.5 98.5 237.5 148 84.5 82Z" fill="#0A0B1E" stroke="#0A0B1E"/>
</svg>
