<svg width="47" height="47" viewBox="0 0 47 47" fill="none" xmlns="http://www.w3.org/2000/svg">
<g clip-path="url(#clip0_28_127)">
<path d="M27.8691 5.38738L37.5335 10.9667C38.2972 10.1638 39.3743 9.66634 40.5669 9.66634C42.8797 9.66634 44.7538 11.5405 44.7538 13.8533C44.7538 15.8135 43.4065 17.4605 41.5872 17.9148L41.5578 17.9207V29.0832C43.4163 29.5395 44.7734 31.1904 44.7734 33.1585C44.7734 35.4733 42.8973 37.3493 40.5826 37.3493C39.3351 37.3493 38.2169 36.8049 37.4492 35.9413L37.4453 35.9374L27.8397 41.4834C27.9748 41.879 28.0532 42.3333 28.0532 42.8053C28.0532 45.12 26.1771 46.9961 23.8623 46.9961C21.5476 46.9961 19.6715 45.12 19.6715 42.8053C19.6715 42.3823 19.7342 41.973 19.8517 41.5891L19.8438 41.6185L10.1677 36.049C9.40395 36.846 8.32882 37.3415 7.14011 37.3415C4.82536 37.3415 2.94928 35.4654 2.94928 33.1507C2.94928 31.1884 4.29857 29.5395 6.11982 29.0852L6.1492 29.0793V17.9188C4.28682 17.4664 2.92578 15.8116 2.92578 13.8415C2.92578 11.5268 4.80186 9.65067 7.11661 9.65067C7.89211 9.65067 8.62061 9.86217 9.24336 10.2303L9.22378 10.2205C9.58411 10.4281 9.89353 10.6729 10.1618 10.9569L10.1638 10.9588L19.834 5.37759C19.7244 5.02117 19.6617 4.61188 19.6617 4.18692C19.6617 1.87413 21.5378 -0.00195312 23.8506 -0.00195312C26.1634 -0.00195312 28.0394 1.87413 28.0394 4.18692C28.0394 4.6158 27.9748 5.02901 27.8554 5.41871L27.8632 5.38934L27.8691 5.38738ZM26.8605 7.10484C26.8233 7.14596 26.7881 7.18121 26.7489 7.21646L26.7469 7.21842L39.3997 29.1322C39.4507 29.1145 39.5094 29.1008 39.5603 29.0871V17.9109C37.7234 17.4448 36.3859 15.8038 36.3859 13.8533C36.3859 13.4949 36.4309 13.1463 36.5151 12.8134L36.5092 12.8428C36.521 12.7958 36.5327 12.7468 36.5465 12.7018L26.8605 7.10484ZM20.9562 7.22038L20.8387 7.10288L11.1527 12.688C11.2565 13.0347 11.3172 13.4342 11.3172 13.8474C11.3172 15.745 10.0541 17.3469 8.32099 17.86L8.29161 17.8678L8.14278 17.909V29.0871L8.30728 29.1322L20.9601 7.21842L20.9562 7.22038ZM25.0217 8.21325C24.6711 8.31705 24.2697 8.37775 23.8545 8.37775C23.4393 8.37775 23.0379 8.31705 22.6579 8.20542L22.6873 8.21325L10.0365 30.125C10.5966 30.6655 11.0078 31.3568 11.2056 32.1343L11.2115 32.1637H36.4955C36.6953 31.3549 37.1085 30.6597 37.6686 30.1211L37.6705 30.1192L25.0275 8.21325H25.0217ZM26.9526 39.9911L36.5817 34.4334C36.5523 34.3413 36.5288 34.2493 36.5073 34.1553H11.2056L11.1645 34.3178L20.8367 39.903C21.6004 39.1138 22.6697 38.6242 23.8525 38.6242C25.0784 38.6242 26.181 39.149 26.9487 39.9872L26.9506 39.9911H26.9526Z" fill="black"/>
</g>
<defs>
<clipPath id="clip0_28_127">
<rect width="47" height="47" fill="white"/>
</clipPath>
</defs>
</svg>
