<svg width="41" height="41" viewBox="0 0 41 41" fill="none" xmlns="http://www.w3.org/2000/svg">
<g clip-path="url(#clip0_28_91)">
<path d="M12.3 12.3L13.4079 11.4998C13.0609 11.0193 12.4436 10.8172 11.8795 10.9996C11.3155 11.182 10.9333 11.7072 10.9333 12.3H12.3ZM20.5 38.2667C10.6877 38.2667 2.73333 30.3124 2.73333 20.5H0C0 31.8217 9.17815 41 20.5 41V38.2667ZM38.2667 20.5C38.2667 30.3124 30.3124 38.2667 20.5 38.2667V41C31.8217 41 41 31.8217 41 20.5H38.2667ZM20.5 2.73333C30.3124 2.73333 38.2667 10.6877 38.2667 20.5H41C41 9.17815 31.8217 0 20.5 0V2.73333ZM20.5 0C9.17815 0 0 9.17815 0 20.5H2.73333C2.73333 10.6877 10.6877 2.73333 20.5 2.73333V0ZM13.6667 32.8V12.3H10.9333V32.8H13.6667ZM11.1921 13.1002L28.9588 37.7L31.1745 36.1L13.4079 11.4998L11.1921 13.1002ZM27.3333 10.9333V27.3333H30.0667V10.9333H27.3333Z" fill="black"/>
</g>
<defs>
<clipPath id="clip0_28_91">
<rect width="41" height="41" fill="white"/>
</clipPath>
</defs>
</svg>
