<svg width="49" height="27" viewBox="0 0 49 27" fill="none" xmlns="http://www.w3.org/2000/svg">
<path d="M24.5 0.975952C10.9714 0.975952 0 6.73967 0 13.86C0 20.9803 10.9714 26.747 24.5 26.747C38.0286 26.747 49 20.9803 49 13.86C49 6.73967 38.0286 0.975952 24.5 0.975952ZM24.5 2.26196C37.6228 2.26196 47.714 7.78858 47.714 13.86C47.714 19.9314 37.6152 25.461 24.5 25.461C11.3772 25.461 1.28601 19.9314 1.28601 13.86C1.28601 7.78858 11.3848 2.26196 24.5 2.26196ZM21.5242 4.81604L19.0479 17.5864H21.8113L23.2379 10.2681C25.4873 10.2681 26.4179 10.1786 26.8268 10.618C27.2509 11.0728 27.0336 11.5717 25.8668 17.5864H28.6691C29.8818 11.368 30.418 10.0485 29.2971 9.01801C28.2298 8.03341 26.0184 8.20752 23.6327 8.20752L24.2906 4.81604H21.5242ZM9.93518 8.21649L7.45587 20.9958H10.2372L10.8952 17.6014C14.0082 17.6014 15.942 17.8275 17.729 16.1539C19.7058 14.3363 20.2219 11.1016 18.8116 9.48157C18.0766 8.63325 16.8933 8.21649 15.2886 8.21649H9.93518ZM31.6658 8.21649L29.1835 20.9958H31.9708L32.6288 17.6014C35.9011 17.6014 37.7124 17.7908 39.4626 16.1539C41.4394 14.3363 41.9555 11.1016 40.5452 9.48157C39.8102 8.63325 38.6269 8.21649 37.0222 8.21649H31.6658ZM14.2957 10.2292C16.0334 10.2782 17.0278 10.6462 16.6075 12.8282C16.0088 15.8968 13.8975 15.5797 11.299 15.5797L12.3367 10.2322C13.0564 10.2322 13.7164 10.2129 14.2957 10.2292ZM36.0292 10.2292C37.7691 10.2782 38.7524 10.6462 38.3321 12.8282C37.7257 15.9412 35.5532 15.5797 33.0236 15.5797L34.0613 10.2322C34.7849 10.2322 35.4493 10.2129 36.0292 10.2292Z" fill="black"/>
</svg>
