<svg width="45" height="40" viewBox="0 0 45 40" fill="none" xmlns="http://www.w3.org/2000/svg">
<path d="M44.2625 20C44.2625 16.9125 40.6874 14.3125 34.9999 12.6875C36.4624 7 35.9749 2.6125 33.3749 0.9875C32.7249 0.6625 32.075 0.5 31.2625 0.5C28.825 0.5 25.575 2.2875 22.325 5.375C19.075 2.2875 15.9875 0.5 13.3875 0.5C12.575 0.5 11.925 0.6625 11.275 0.9875C8.83745 2.6125 8.34995 7 9.64995 12.6875C4.12495 14.3125 0.387451 17.075 0.387451 20C0.387451 23.0875 3.96245 25.6875 9.64995 27.3125C8.34995 33 8.83745 37.55 11.4375 39.0125C12.0875 39.3375 12.7375 39.5 13.55 39.5C15.9875 39.5 19.2375 37.7125 22.4875 34.625C25.7375 37.7125 28.8249 39.5 31.4249 39.5C32.2374 39.5 32.8875 39.3375 33.5375 39.0125C36.1375 37.55 36.625 33 35.325 27.3125C40.6875 25.6875 44.2625 22.925 44.2625 20ZM31.2625 2.6125C31.75 2.6125 32.0749 2.6125 32.2374 2.9375C33.5374 3.5875 34.025 6.1875 33.5375 9.6C33.375 10.4125 33.2124 11.3875 33.0499 12.2C31.2624 11.7125 29.4749 11.55 27.3624 11.225C26.2249 9.6 25.0875 8.1375 23.7875 6.8375C26.7125 4.075 29.475 2.6125 31.2625 2.6125ZM28.3374 23.4125C27.6874 24.55 27.0375 25.6875 26.225 26.6625C24.925 26.825 23.625 26.825 22.325 26.825C21.025 26.825 19.725 26.825 18.425 26.6625C17.775 25.6875 17.125 24.55 16.3125 23.4125C15.6625 22.275 15.0125 21.1375 14.525 20C15.0125 18.8625 15.6625 17.725 16.3125 16.5875C16.9625 15.45 17.775 14.3125 18.425 13.175C19.725 13.0125 21.025 13.0125 22.325 13.0125C23.625 13.0125 24.925 13.0125 26.225 13.175C26.875 14.15 27.6874 15.2875 28.3374 16.5875C28.9874 17.725 29.6374 18.8625 30.1249 20C29.6374 21.1375 28.9874 22.275 28.3374 23.4125ZM31.2625 22.4375C31.75 23.575 32.0749 24.7125 32.3999 25.6875C31.2624 26.0125 30.1249 26.175 28.9874 26.3375C29.3124 25.6875 29.7999 25.0375 30.1249 24.3875C30.6124 23.9 30.9375 23.0875 31.2625 22.4375ZM22.325 31.7C21.5125 30.8875 20.7 29.9125 20.05 28.9375C20.8625 28.9375 21.675 28.9375 22.325 28.9375C23.1375 28.9375 23.95 28.9375 24.6 28.9375C23.95 29.9125 23.1375 30.8875 22.325 31.7ZM15.6625 26.5C14.525 26.3375 13.3875 26.175 12.25 25.85C12.575 24.7125 13.0625 23.575 13.3875 22.6C13.7125 23.25 14.0375 23.9 14.525 24.55C15.0125 25.2 15.3375 25.85 15.6625 26.5ZM13.3875 17.5625C12.9 16.425 12.575 15.2875 12.0875 14.15C13.225 13.825 14.3625 13.6625 15.6625 13.5C15.175 14.15 14.85 14.8 14.3625 15.45C14.2 16.2625 13.875 16.9125 13.3875 17.5625ZM22.325 8.3C23.1375 9.1125 23.7875 10.0875 24.6 10.9C23.7875 10.9 23.1375 10.9 22.325 10.9C21.5125 10.9 20.8625 10.9 20.05 10.9C20.8625 10.0875 21.675 9.1125 22.325 8.3ZM30.1249 15.45C29.6374 14.8 29.3125 14.15 28.825 13.5C30.125 13.6625 31.2624 13.825 32.3999 14.15C32.0749 15.2875 31.5875 16.425 31.1 17.5625C30.9375 16.9125 30.6124 16.2625 30.1249 15.45ZM11.275 9.4375C10.7875 6.025 11.275 3.5875 12.575 2.775C12.9 2.6125 13.225 2.45 13.55 2.45C15.3375 2.45 17.9375 3.9125 20.8625 6.675C19.725 7.975 18.425 9.4375 17.2875 11.0625C15.3375 11.225 13.3875 11.55 11.6 12.0375C11.4375 11.225 11.275 10.25 11.275 9.4375ZM7.69995 24.3875C4.61245 23.0875 2.49995 21.3 2.49995 20C2.49995 18.5375 4.44995 16.9125 7.53745 15.6125C8.34995 15.2875 9.16245 14.9625 10.1375 14.8C10.625 16.5875 11.275 18.375 12.25 20.1625C11.4375 21.95 10.7875 23.7375 10.3 25.3625C9.32495 25.0375 8.51245 24.7125 7.69995 24.3875ZM12.4125 37.225C11.1125 36.575 10.625 33.975 11.1125 30.5625C11.275 29.75 11.4375 28.775 11.6 27.8C13.3875 28.125 15.175 28.45 17.125 28.6125C18.2625 30.2375 19.5625 31.7 20.7 33C17.775 35.7625 15.175 37.225 13.3875 37.225C13.0625 37.3875 12.7375 37.225 12.4125 37.225ZM33.5375 30.5625C34.025 33.975 33.5374 36.4125 32.2374 37.225C31.9124 37.3875 31.5875 37.55 31.2625 37.55C29.475 37.55 26.875 36.0875 23.95 33.325C25.25 32.025 26.3874 30.5625 27.5249 28.9375C29.4749 28.775 31.4249 28.45 33.0499 28.125C33.2124 28.775 33.375 29.5875 33.5375 30.5625ZM37.1124 24.3875C36.2999 24.7125 35.4875 25.0375 34.5125 25.2C34.025 23.575 33.3749 21.7875 32.5624 20C33.3749 18.2125 34.0249 16.425 34.6749 14.6375C35.4874 14.9625 36.4624 15.125 37.2749 15.45C40.3624 16.75 42.3124 18.375 42.3124 19.8375C42.1499 21.3 40.1999 23.0875 37.1124 24.3875Z" fill="black"/>
<path d="M22.4874 24.0625C24.7624 24.0625 26.5499 22.275 26.5499 20C26.5499 17.725 24.7624 15.9375 22.4874 15.9375C20.2124 15.9375 18.4249 17.725 18.4249 20C18.4249 22.275 20.2124 24.0625 22.4874 24.0625Z" fill="black"/>
</svg>
