<svg width="41" height="41" viewBox="0 0 41 41" fill="none" xmlns="http://www.w3.org/2000/svg">
<g clip-path="url(#clip0_29_131)">
<path d="M28.7656 28.2818C30.2301 28.1358 31.365 26.9091 31.365 25.4183C31.365 25.3593 31.3634 25.3003 31.3601 25.2412V25.2494C31.283 23.6701 29.9923 22.4188 28.4064 22.4024H28.2998C26.7123 22.4614 25.4479 23.7619 25.4479 25.3577C25.4479 25.3937 25.4479 25.4298 25.4495 25.4675V25.4626C25.4922 26.2383 25.8103 26.9337 26.3056 27.4585L26.304 27.4569C24.3573 31.0878 21.3823 33.9513 17.7694 35.7077L17.6562 35.7569C15.7014 36.8393 13.3693 37.4756 10.888 37.4756C10.2598 37.4756 9.63992 37.4346 9.03476 37.3559L9.10692 37.3641C6.87488 37.1493 4.9528 35.9799 3.73264 34.2743L3.71788 34.2514C2.8372 33.0132 2.31076 31.4716 2.31076 29.8053C2.31076 28.4327 2.66828 27.1436 3.2964 26.0251L3.27672 26.0645C4.1738 24.3655 5.39724 22.9518 6.87488 21.8628L6.90932 21.8399C6.62888 21.0969 6.37796 20.2015 6.20084 19.2815L6.1828 19.1732C-1.49732 24.6656 -0.718322 32.1784 1.61376 35.729C3.65228 38.3301 6.79452 39.9865 10.3238 39.9865C10.4845 39.9865 10.6436 39.9832 10.8027 39.9766H10.7797C10.8371 39.9783 10.906 39.9783 10.9749 39.9783C12.036 39.9783 13.0675 39.8553 14.0581 39.624L13.9662 39.6421C20.5394 38.4383 25.9218 34.2022 28.6836 28.4671L28.7361 28.3457L28.7656 28.2818Z" fill="black"/>
<path d="M38.0152 21.8104C34.0743 17.3168 28.3228 14.496 21.9104 14.496C21.7152 14.496 21.5184 14.4992 21.3249 14.5042H21.3544H20.4721C20.008 13.5743 19.0617 12.9462 17.9695 12.9462C17.9367 12.9462 17.9055 12.9462 17.8727 12.9478H17.8776H17.8137C16.2294 12.9708 14.9535 14.2598 14.9535 15.8473C14.9535 15.8949 14.9551 15.9408 14.9568 15.9867V15.9802C15.0306 17.5595 16.3213 18.8141 17.9088 18.8305H18.0383C19.2093 18.7846 20.1982 18.0564 20.6246 17.0363L20.6312 17.0166H21.5906C25.7791 17.0216 29.6659 18.3073 32.8803 20.5066L32.8115 20.4623C35.3223 22.0695 37.2608 24.3786 38.3743 27.1125L38.4088 27.2076C38.8352 28.0965 39.0828 29.1395 39.0828 30.24C39.0828 31.4044 38.8057 32.5032 38.312 33.474L38.3301 33.433C37.0558 36.0341 34.4285 37.7922 31.3912 37.7922C31.2797 37.7922 31.1698 37.7905 31.0599 37.7856H31.0763C29.2117 37.7462 27.4519 37.3362 25.8562 36.6261L25.9415 36.6606C25.3199 37.1788 24.2835 38.0316 23.5307 38.5515C25.5217 39.5289 27.857 40.1242 30.3252 40.1816H30.3449C30.4417 40.1849 30.5548 40.1866 30.668 40.1866C34.8533 40.1866 38.5187 37.9644 40.5506 34.6368L40.5801 34.586C41.141 33.2559 41.4657 31.711 41.4657 30.0891C41.4657 26.8419 40.1603 23.8997 38.0463 21.7595L38.048 21.7612L38.0234 21.8136L38.0152 21.8104Z" fill="black"/>
<path d="M11.2242 29.2182C11.2963 30.7992 12.5903 32.0571 14.1811 32.0686H14.2861C15.8736 32.0144 17.1413 30.7123 17.1413 29.1166C17.1413 27.493 15.8309 26.1744 14.209 26.1629H14.0991C14.0827 26.1613 14.063 26.1613 14.045 26.1613C13.9253 26.1613 13.8105 26.1793 13.7022 26.2154L13.7104 26.2138C11.9556 23.3585 10.9175 19.8998 10.9175 16.1983C10.9175 15.6013 10.9437 15.0109 10.9979 14.4287L10.9929 14.5042C11.1422 11.3783 12.2902 8.54605 14.1204 6.29269L14.1007 6.31893C15.726 4.56249 18.0154 3.44401 20.5689 3.36201H20.5837C26.1793 3.25705 28.5131 10.2303 28.6935 13.0019L31.2879 13.7776C30.6844 5.28081 25.4003 0.820007 20.3475 0.820007C15.211 1.08733 10.9487 4.54281 9.48743 9.23485L9.46447 9.32013C8.74615 11.3898 8.32959 13.7744 8.32959 16.2557C8.32959 20.5 9.54483 24.4606 11.644 27.8078L11.5915 27.7176C11.357 28.0719 11.2176 28.5065 11.2176 28.9739C11.2176 29.0608 11.2225 29.1461 11.2324 29.2297L11.2307 29.2199L11.2242 29.2182Z" fill="black"/>
</g>
<defs>
<clipPath id="clip0_29_131">
<rect width="41" height="41" fill="white"/>
</clipPath>
</defs>
</svg>
