<svg width="43" height="43" viewBox="0 0 43 43" fill="none" xmlns="http://www.w3.org/2000/svg">
<g clip-path="url(#clip0_28_129)">
<path d="M27.572 42.9624L40.5006 40.1656C40.5006 40.1656 35.8351 8.6 35.7975 8.39933C35.7724 8.20942 35.613 8.0625 35.4195 8.05533C35.2403 8.05533 31.9633 7.81167 31.9633 7.81167C31.9633 7.81167 29.679 5.52908 29.3851 5.28362C29.3242 5.22808 29.2525 5.18329 29.1737 5.15283L29.1683 5.15104L27.5307 42.9552H27.572V42.9624ZM21.0736 20.2548C20.1455 19.7961 19.0562 19.5184 17.9023 19.4951H17.8952C15.3026 19.4951 15.2077 21.1184 15.2077 21.5394C15.2077 23.7468 21.0127 24.6121 21.0127 29.833C21.0127 33.9539 18.4327 36.5697 14.9102 36.5697C14.8386 36.5715 14.7562 36.5733 14.672 36.5733C12.2693 36.5733 10.1032 35.5646 8.57133 33.9485L8.56775 33.9449L9.72517 30.2075C10.836 31.1822 12.2281 31.8612 13.7636 32.112L13.8102 32.1174C13.8263 32.1174 13.846 32.1192 13.8657 32.1192C14.792 32.1192 15.5445 31.3739 15.557 30.4494V30.4476C15.557 27.5469 10.802 27.4125 10.802 22.6377C10.7339 18.6333 13.6095 14.7257 19.4432 14.7257C19.5542 14.7203 19.6832 14.7167 19.8122 14.7167C20.8962 14.7167 21.9246 14.9586 22.8455 15.3922L22.8025 15.3743L21.1094 20.2476L21.0736 20.2655V20.2548ZM20.1061 1.48708C20.3766 1.48887 20.6257 1.57846 20.8263 1.73075L20.8227 1.72896C19.0687 2.56208 17.1337 4.65833 16.3382 8.88129C15.1629 9.26292 14.0216 9.60692 12.9537 9.91687C13.889 6.71875 16.1304 1.505 20.1061 1.505V1.48708ZM22.3098 6.77071V7.01258C20.9589 7.42825 19.4736 7.87975 18.0206 8.33125C18.404 6.02538 19.8033 4.10829 21.7347 3.02792L21.7723 3.00821C22.1271 4.01871 22.3331 5.18508 22.3331 6.39804C22.3331 6.52883 22.3313 6.65962 22.326 6.78862V6.77071H22.3098ZM23.2755 2.76812C24.519 2.90071 25.3198 4.3215 25.8358 5.9125C25.2105 6.11675 24.519 6.32637 23.7611 6.56825V6.11675C23.7629 6.04687 23.7647 5.96446 23.7647 5.88025C23.7647 4.76763 23.5855 3.69442 23.2558 2.69287L23.2755 2.76454V2.76812ZM28.6362 5.07758C28.6004 5.07758 28.5287 5.11521 28.4965 5.11521C28.4642 5.11521 27.9787 5.24958 27.2172 5.49146C26.4593 3.28233 25.1102 1.24521 22.7237 1.24521H22.5177C22.0088 0.530333 21.2026 0.05375 20.2835 0H20.2763C14.7114 0 12.0525 6.94629 11.2194 10.4741C9.08017 11.128 7.52321 11.6136 7.34942 11.6817C6.14004 12.0633 6.106 12.0973 5.96625 13.2404C5.83187 14.0682 2.6875 38.4366 2.6875 38.4366L26.9843 43L28.6452 5.07758H28.6362Z" fill="black"/>
</g>
<defs>
<clipPath id="clip0_28_129">
<rect width="43" height="43" fill="white"/>
</clipPath>
</defs>
</svg>
