<svg width="39" height="39" viewBox="0 0 39 39" fill="none" xmlns="http://www.w3.org/2000/svg">
<g clip-path="url(#clip0_28_105)">
<path d="M19.635 17.3711C17.887 17.3711 16.8794 19.0844 16.8794 21.2023C16.8622 23.3524 17.9041 24.9994 19.6179 24.9994C21.348 24.9994 22.3572 23.3691 22.3572 21.1519C22.3572 19.0844 21.382 17.3711 19.635 17.3711Z" fill="black"/>
<path d="M34.5835 13.9498H33.6472V9.43114C33.6472 9.40276 33.6426 9.37459 33.6389 9.34579C33.6374 9.16654 33.5803 8.99035 33.4575 8.85072L25.9381 0.261545C25.9359 0.25934 25.9335 0.258416 25.932 0.256211C25.8873 0.206135 25.835 0.164453 25.7798 0.128461C25.7633 0.117507 25.7469 0.108331 25.7297 0.0986575C25.6819 0.072695 25.6311 0.050858 25.5788 0.0351383C25.5647 0.0314395 25.552 0.0256068 25.5378 0.0219081C25.4809 0.00839335 25.422 0 25.3624 0H6.88241C6.03852 0 5.35304 0.686335 5.35304 1.52944V13.9497H4.41675C3.20989 13.9497 2.23071 14.9281 2.23071 16.1357V27.5032C2.23071 28.7096 3.20989 29.6891 4.41675 29.6891H5.35304V37.4706C5.35304 38.3138 6.03852 39 6.88241 39H32.1177C32.9608 39 33.6472 38.3138 33.6472 37.4706V29.6891H34.5835C35.7911 29.6891 36.7693 28.7096 36.7693 27.5032V16.1358C36.7694 14.9282 35.7911 13.9498 34.5835 13.9498ZM6.88241 1.52944H24.5976V9.35418C24.5976 9.77691 24.9403 10.1189 25.3623 10.1189H32.1177V13.95H6.88241V1.52944ZM25.1113 26.8132L24.372 28.7966C22.7598 28.3258 21.4155 27.8378 19.9031 27.2001C19.6522 27.0992 19.3826 27.0484 19.1139 27.0321C16.5597 26.8648 14.174 24.9822 14.174 21.2863C14.174 17.8926 16.3247 15.3382 19.7015 15.3382C23.1638 15.3382 25.0613 17.9596 25.0613 21.0512C25.0613 23.622 23.8687 25.4355 22.3736 26.1079V26.1751C23.2474 26.4268 24.2212 26.6288 25.1113 26.8132ZM5.18631 26.3264L5.70755 24.2093C6.3968 24.5621 7.45408 24.9145 8.54685 24.9145C9.72228 24.9145 10.3444 24.428 10.3444 23.6891C10.3444 22.9829 9.80664 22.5797 8.44585 22.0928C6.56396 21.4372 5.33775 20.3958 5.33775 18.7487C5.33775 16.8166 6.95098 15.3381 9.62199 15.3381C10.8991 15.3381 11.8401 15.6078 12.5115 15.9093L11.941 17.9764C11.4875 17.7576 10.6812 17.4384 9.57234 17.4384C8.46278 17.4384 7.92475 17.9419 7.92475 18.5307C7.92475 19.2527 8.56328 19.5725 10.0254 20.1274C12.0248 20.8667 12.9654 21.9073 12.9654 23.5035C12.9654 25.4026 11.5032 27.0149 8.39506 27.0149C7.10199 27.0142 5.82556 26.6781 5.18631 26.3264ZM32.1177 37.0561H6.88241V29.6891H32.1177V37.0561ZM33.8144 26.8465H26.7402V15.5228H29.3121V24.6964H33.8144V26.8465V26.8465Z" fill="black"/>
</g>
<defs>
<clipPath id="clip0_28_105">
<rect width="39" height="39" fill="white"/>
</clipPath>
</defs>
</svg>
