<svg width="45" height="27" viewBox="0 0 45 27" fill="none" xmlns="http://www.w3.org/2000/svg">
<path fill-rule="evenodd" clip-rule="evenodd" d="M22.5 0.329529C16.6103 0.329529 12.9313 3.25557 11.4583 9.10986C13.6666 6.18382 16.2438 5.08628 19.1875 5.81724C20.868 6.23461 22.0693 7.44699 23.3965 8.78745C25.5629 10.9715 28.0694 13.5 33.5416 13.5C39.4313 13.5 43.1103 10.574 44.5833 4.7197C42.375 7.64574 39.8 8.74328 36.8541 8.01232C35.1736 7.59495 33.9723 6.38257 32.6428 5.04211C30.4787 2.85586 27.9744 0.329529 22.5 0.329529ZM11.4583 13.5C5.56867 13.5 1.88958 16.4261 0.416626 22.2804C2.62496 19.3521 5.20208 18.2568 8.14579 18.9877C9.82633 19.4051 11.0277 20.6175 12.3571 21.9579C14.5213 24.142 17.0277 26.6705 22.5022 26.6705C28.3918 26.6705 32.0709 23.7445 33.5438 17.8902C31.3355 20.8162 28.7584 21.9138 25.8147 21.1828C24.1341 20.7654 22.9328 19.5531 21.6056 18.2126C19.437 16.0286 16.9305 13.5 11.4583 13.5Z" fill="black"/>
</svg>
