<svg width="32" height="36" viewBox="0 0 32 36" fill="none" xmlns="http://www.w3.org/2000/svg">
<path d="M32 36L24.2169 29.8692L24.8889 32.4H3.55556C1.59111 32.4 0 30.789 0 28.8V3.6C0 1.611 1.59111 0 3.55556 0H28.4444C30.4089 0 32 1.611 32 3.6V36ZM23.6267 10.026C23.6267 10.026 21.44 8.316 18.8622 8.118L18.3289 9.216C17.5289 9.072 16.7111 8.964 16 8.964C15.2711 8.964 14.4356 9.072 13.6711 9.216L13.1378 8.118C10.4356 8.388 8.37333 10.026 8.37333 10.026C8.37333 10.026 5.93778 13.59 5.52889 20.538C7.98222 23.382 11.7156 23.4 11.7156 23.4L12.48 22.356C11.6978 22.086 11.0222 21.726 10.3289 21.186L10.4889 20.754C11.7689 21.348 13.4222 21.708 16 21.708C18.5778 21.708 20.2311 21.348 21.5111 20.754L21.6711 21.186C20.9778 21.726 20.3022 22.086 19.52 22.356L20.2844 23.4C20.2844 23.4 24.0178 23.382 26.4711 20.538C26.0622 13.59 23.6267 10.026 23.6267 10.026ZM12.4444 18.684C11.52 18.684 10.7733 17.73 10.7733 16.56C10.7733 15.39 11.52 14.436 12.4444 14.436C13.3689 14.436 14.1156 15.39 14.1156 16.56C14.1156 17.73 13.3689 18.684 12.4444 18.684ZM19.5556 18.684C18.6311 18.684 17.8844 17.73 17.8844 16.56C17.8844 15.39 18.6311 14.436 19.5556 14.436C20.48 14.436 21.2267 15.39 21.2267 16.56C21.2267 17.73 20.48 18.684 19.5556 18.684Z" fill="black"/>
</svg>
