<svg width="34" height="34" viewBox="0 0 34 34" fill="none" xmlns="http://www.w3.org/2000/svg">
<path d="M6.40589 28.4893C4.07487 26.1583 4.07487 22.3687 6.40589 20.0377L11.8586 14.585L9.26856 11.9949L3.81586 17.4476C0.0535074 21.21 0.0535074 27.317 3.81586 31.0794C7.57822 34.8417 13.6852 34.8417 17.4476 31.0794L22.9003 25.6267L20.3103 23.0366L14.8576 28.4893C12.5265 30.8204 8.73692 30.8204 6.40589 28.4893ZM13.3581 24.2635L24.2635 13.3581L21.5371 10.6318L10.6317 21.5371L13.3581 24.2635ZM17.4476 3.81589L11.9949 9.26859L14.5849 11.8586L20.0376 6.40592C22.3686 4.0749 26.1583 4.0749 28.4893 6.40592C30.8203 8.73695 30.8203 12.5266 28.4893 14.8576L23.0366 20.3103L25.6266 22.9003L31.0793 17.4476C34.8417 13.6853 34.8417 7.57825 31.0793 3.81589C27.317 0.0535372 21.21 0.0535372 17.4476 3.81589Z" fill="black"/>
</svg>
