<svg width="34" height="34" viewBox="0 0 34 34" fill="none" xmlns="http://www.w3.org/2000/svg">
<path d="M29.0323 4.9776C25.826 1.7697 21.5622 0.0017 17.0195 0C7.65888 0 0.0408022 7.6143 0.037402 16.9745C0.0357019 19.9665 0.817741 22.8871 2.30361 25.4609L0 34L8.89654 31.8971C11.377 33.2503 14.1685 33.9626 17.011 33.9643H17.0178C26.3768 33.9643 33.9949 26.3483 34 16.9898C34.0034 12.4525 32.2387 8.1872 29.0323 4.9776ZM25.3279 23.0418C24.9742 24.0329 23.2419 24.9883 22.4632 25.058C21.6846 25.1294 20.9552 25.4099 17.3715 23.9972C13.0584 22.2972 10.3348 17.8755 10.124 17.5933C9.91149 17.3094 8.39162 15.2932 8.39162 13.2056C8.39162 11.118 9.48817 10.0912 9.87749 9.6679C10.2668 9.2429 10.7258 9.1375 11.0097 9.1375C11.292 9.1375 11.5759 9.1375 11.8224 9.1477C12.125 9.1596 12.4599 9.1749 12.7778 9.8804C13.1553 10.7202 13.9798 12.818 14.0852 13.0305C14.1906 13.243 14.262 13.4912 14.1209 13.7734C13.9798 14.0556 13.9084 14.2324 13.6976 14.4806C13.4851 14.7288 13.2522 15.0331 13.0617 15.2235C12.8492 15.4343 12.6282 15.6655 12.8747 16.0888C13.123 16.5138 13.973 17.9027 15.2345 19.0264C16.8563 20.4714 18.2215 20.9185 18.6465 21.1327C19.0716 21.3452 19.3181 21.3095 19.5663 21.0256C19.8145 20.7434 20.6271 19.788 20.9093 19.363C21.1916 18.938 21.4755 19.0094 21.8648 19.1505C22.2541 19.2916 24.3401 20.3184 24.7634 20.5309C25.1885 20.7434 25.4707 20.8488 25.5761 21.0256C25.6815 21.2007 25.6815 22.0507 25.3279 23.0418Z" fill="black"/>
</svg>
